<svg width="300" height="300" xmlns="http://www.w3.org/2000/svg">
 <!---->

 <!---->
 <!---->
 <!---->
 <g>
  <title>Layer 1</title>
  <g transform="matrix(1.1425 0 0 1.14149 -21.2104 -21.2239)" fill="#FFD7D7" id="9269873b-566f-aa23-fe77-697bbc54db67">
   <svg y="0" x="0" id="svg_3" viewBox="-205 207 100 100" xmlns="http://www.w3.org/2000/svg">
    <switch>
     <g id="svg_4">
      <path id="svg_5" d="m-155,298.8c11.2,0 21.7,-4.3 29.6,-12.2c7.9,-7.9 12.2,-18.4 12.2,-29.6c0,-11.2 -4.3,-21.7 -12.2,-29.6c-7.9,-7.9 -18.4,-12.2 -29.6,-12.2s-21.7,4.3 -29.6,12.2c-7.9,7.9 -12.2,18.4 -12.2,29.6c0,11.2 4.3,21.7 12.2,29.6c7.9,7.9 18.4,12.2 29.6,12.2zm2.4,-7.1c-0.8,0.1 -1.6,0.1 -2.4,0.1c-1.1,0 -2.2,-0.1 -3.3,-0.2c-3.6,-5.6 -6.3,-11.6 -7.9,-17.9l17.7,0c0.6,1.5 1.7,2.9 3,3.8c-1.7,5 -4.1,9.7 -7.1,14.2zm9.5,-2c1.9,-3.5 3.4,-7 4.6,-10.7c2.9,-0.6 5.2,-2.6 6.3,-5.3l7.7,0c-4,7.3 -10.7,13 -18.6,16zm22.8,-32.7c0,3.3 -0.5,6.5 -1.3,9.6l-10.8,0c-0.6,-1.3 -1.6,-2.5 -2.8,-3.4c0.2,-2.2 0.3,-4.4 0.3,-6.6c0,-3.1 -0.2,-6.2 -0.6,-9.2l13.8,0c1,3 1.4,6.3 1.4,9.6zm-4.2,-16.7l-12.2,0c-1.3,-5.5 -3.2,-10.7 -5.8,-15.7c7.6,2.9 14,8.6 18,15.7zm-17.4,16.3c0,1.7 -0.1,3.4 -0.2,5.1c-2.8,0.6 -5.1,2.4 -6.2,4.9l-19.3,0c-0.4,-3 -0.7,-6.1 -0.7,-9.1c0,-1.9 0.1,-3.8 0.3,-5.7c2.6,-0.5 4.7,-2.2 6,-4.4l19.5,0c0.4,3 0.6,6.1 0.6,9.2zm-15.7,-34.2c0.9,-0.1 1.8,-0.1 2.6,-0.1c1,0 2,0 3,0.1c3.6,5.6 6.3,11.6 7.9,17.9l-17.4,0c-0.6,-1.7 -1.7,-3.2 -3.1,-4.3c1.8,-4.8 4.1,-9.3 7,-13.6zm-9.5,2c-1.7,3.2 -3.2,6.6 -4.4,10c-3.1,0.6 -5.6,2.9 -6.6,5.8l-7.3,0c3.9,-7.1 10.4,-12.8 18.3,-15.8zm-22.6,32.6c0,-3.3 0.5,-6.6 1.4,-9.6l10.9,0c0.6,1.1 1.5,2.1 2.5,2.9c-0.2,2.4 -0.4,4.8 -0.4,7.2c0,3.1 0.2,6.1 0.6,9.1l-13.6,0c-1,-3.1 -1.4,-6.3 -1.4,-9.6zm16.2,16.6c1.3,5.4 3.2,10.7 5.8,15.7c-7.6,-3 -13.9,-8.6 -17.8,-15.7l12,0z"/>
     </g>
    </switch>
   </svg>
  </g>
 </g>
</svg>